<svg width="126" height="24" viewBox="0 0 126 24" fill="none" xmlns="http://www.w3.org/2000/svg">
<path d="M114.134 6.08719L107.441 9.17953C107.117 9.32911 106.858 9.59152 106.71 9.91875L103.651 16.6847C103.298 17.4652 104.093 18.2695 104.866 17.9128L111.559 14.8205C111.883 14.6709 112.142 14.4085 112.29 14.0812L115.349 7.31531C115.702 6.53437 114.907 5.73047 114.134 6.08719ZM110.547 13.0584C109.969 13.643 109.031 13.643 108.453 13.0584C107.875 12.4739 107.875 11.5261 108.453 10.9416C109.031 10.357 109.969 10.357 110.547 10.9416C111.125 11.5261 111.125 12.4739 110.547 13.0584ZM109.5 0.375C103.149 0.375 98 5.57953 98 12C98 18.4205 103.149 23.625 109.5 23.625C115.851 23.625 121 18.4205 121 12C121 5.57953 115.851 0.375 109.5 0.375ZM109.5 21.375C104.386 21.375 100.226 17.1694 100.226 12C100.226 6.83063 104.386 2.625 109.5 2.625C114.614 2.625 118.774 6.83063 118.774 12C118.774 17.1694 114.614 21.375 109.5 21.375Z" fill="#3CB878"/>
<path d="M12.9375 13.5H11.0625C10.7531 13.5 10.5 13.2469 10.5 12.9375V11.0625C10.5 10.7531 10.7531 10.5 11.0625 10.5H12.9375C13.2469 10.5 13.5 10.7531 13.5 11.0625V12.9375C13.5 13.2469 13.2469 13.5 12.9375 13.5ZM18 12.9375V11.0625C18 10.7531 17.7469 10.5 17.4375 10.5H15.5625C15.2531 10.5 15 10.7531 15 11.0625V12.9375C15 13.2469 15.2531 13.5 15.5625 13.5H17.4375C17.7469 13.5 18 13.2469 18 12.9375ZM22.5 12.9375V11.0625C22.5 10.7531 22.2469 10.5 21.9375 10.5H20.0625C19.7531 10.5 19.5 10.7531 19.5 11.0625V12.9375C19.5 13.2469 19.7531 13.5 20.0625 13.5H21.9375C22.2469 13.5 22.5 13.2469 22.5 12.9375ZM18 17.4375V15.5625C18 15.2531 17.7469 15 17.4375 15H15.5625C15.2531 15 15 15.2531 15 15.5625V17.4375C15 17.7469 15.2531 18 15.5625 18H17.4375C17.7469 18 18 17.7469 18 17.4375ZM13.5 17.4375V15.5625C13.5 15.2531 13.2469 15 12.9375 15H11.0625C10.7531 15 10.5 15.2531 10.5 15.5625V17.4375C10.5 17.7469 10.7531 18 11.0625 18H12.9375C13.2469 18 13.5 17.7469 13.5 17.4375ZM22.5 17.4375V15.5625C22.5 15.2531 22.2469 15 21.9375 15H20.0625C19.7531 15 19.5 15.2531 19.5 15.5625V17.4375C19.5 17.7469 19.7531 18 20.0625 18H21.9375C22.2469 18 22.5 17.7469 22.5 17.4375ZM27 5.25V21.75C27 22.9922 25.9922 24 24.75 24H8.25C7.00781 24 6 22.9922 6 21.75V5.25C6 4.00781 7.00781 3 8.25 3H10.5V0.5625C10.5 0.253125 10.7531 0 11.0625 0H12.9375C13.2469 0 13.5 0.253125 13.5 0.5625V3H19.5V0.5625C19.5 0.253125 19.7531 0 20.0625 0H21.9375C22.2469 0 22.5 0.253125 22.5 0.5625V3H24.75C25.9922 3 27 4.00781 27 5.25ZM24.75 21.4688V7.5H8.25V21.4688C8.25 21.6234 8.37656 21.75 8.53125 21.75H24.4688C24.6234 21.75 24.75 21.6234 24.75 21.4688Z" fill="#3CB878"/>
<g clip-path="url(#clip0)">
<path d="M73.1837 7.71169C72.9635 7.52967 67.9467 3.49528 66.8438 2.61839C65.8077 1.7902 64.0361 0 62 0C59.9748 0 58.2202 1.76798 57.1562 2.61839C56.0095 3.53011 51.0123 7.54941 50.821 7.70662C50.5643 7.91771 50.3576 8.18304 50.2156 8.48354C50.0736 8.78405 50 9.11226 50 9.44461V21.75C50 22.9927 51.0073 24 52.25 24H71.75C72.9927 24 74 22.9927 74 21.75V9.44573C74 9.11443 73.9268 8.78721 73.7857 8.48745C73.6446 8.1877 73.4391 7.9228 73.1837 7.71169ZM71.75 21.4688C71.75 21.5433 71.7204 21.6149 71.6676 21.6676C71.6149 21.7204 71.5433 21.75 71.4688 21.75H52.5312C52.4567 21.75 52.3851 21.7204 52.3324 21.6676C52.2796 21.6149 52.25 21.5433 52.25 21.4688V9.57877C52.25 9.49378 52.2882 9.41348 52.3543 9.36009C53.0983 8.75944 57.454 5.256 58.5589 4.37761C59.4104 3.6975 60.8937 2.25 62 2.25C63.1106 2.25 64.6183 3.72042 65.4411 4.37761C66.5461 5.25609 70.9022 8.76009 71.6458 9.36117C71.6783 9.38752 71.7046 9.42082 71.7227 9.45864C71.7407 9.49647 71.75 9.53785 71.75 9.57975V21.4688ZM70.2504 12.6701C70.4496 12.912 70.4128 13.2699 70.1686 13.4661C68.8104 14.5575 67.3902 15.6972 66.8438 16.1316C65.7798 16.982 64.0252 18.75 62 18.75C59.9632 18.75 58.1897 16.9576 57.1562 16.1316C56.6275 15.7112 55.1994 14.5653 53.8315 13.466C53.5872 13.2697 53.5505 12.9119 53.7497 12.67L54.4649 11.8015C54.6607 11.5637 55.0113 11.5276 55.2514 11.7206C56.5929 12.7988 57.9967 13.9254 58.5589 14.3724C59.3817 15.0296 60.8894 16.5 62 16.5C63.1063 16.5 64.5897 15.0525 65.4411 14.3724C66.0033 13.9254 67.4072 12.7988 68.7487 11.7208C68.9888 11.5278 69.3394 11.5639 69.5352 11.8017L70.2504 12.6701Z" fill="#3CB878"/>
</g>
<defs>
<clipPath id="clip0">
<rect width="24" height="24" fill="white" transform="translate(50)"/>
</clipPath>
</defs>
</svg>
